<svg width="16" height="16" viewBox="0 0 16 16" fill="none" xmlns="http://www.w3.org/2000/svg">
<path fill-rule="evenodd" clip-rule="evenodd" d="M8 0C12.4183 0 16 3.58172 16 8V16H8C3.58172 16 0 12.4183 0 8C0 3.58172 3.58172 0 8 0ZM5.62164 3.89258V11.6764H7.78381C9.93324 11.6764 11.6757 9.9339 11.6757 7.78447C11.6757 5.63504 9.93324 3.89258 7.78381 3.89258H5.62164ZM7.78379 5.62229H7.78381C8.97793 5.62229 9.94596 6.59032 9.94596 7.78445C9.94596 8.97857 8.97793 9.9466 7.78381 9.94661H7.78379V5.62229ZM7.35135 5.62229V9.94661H7.78378V5.62229H7.35135Z" fill="#3488FF"/>
</svg>
